<?xml version="1.0" encoding="UTF-8" standalone="no"?>
<svg
   version="1.1"
   viewBox="0 0 512 512"
   id="svg93"
   sodipodi:docname="app-logo.svg"
   width="512"
   height="512"
   inkscape:export-filename="favicon.ico"
   inkscape:export-xdpi="96"
   inkscape:export-ydpi="96"
   inkscape:version="1.3 (0e150ed6c4, 2023-07-21)"
   xmlns:inkscape="http://www.inkscape.org/namespaces/inkscape"
   xmlns:sodipodi="http://sodipodi.sourceforge.net/DTD/sodipodi-0.dtd"
   xmlns="http://www.w3.org/2000/svg"
   xmlns:svg="http://www.w3.org/2000/svg">
  <defs
     id="defs93" />
  <sodipodi:namedview
     id="namedview93"
     pagecolor="#ffffff"
     bordercolor="#000000"
     borderopacity="0.25"
     inkscape:showpageshadow="2"
     inkscape:pageopacity="0.0"
     inkscape:pagecheckerboard="0"
     inkscape:deskcolor="#d1d1d1"
     inkscape:zoom="0.80175782"
     inkscape:cx="22.45067"
     inkscape:cy="130.33861"
     inkscape:window-width="1920"
     inkscape:window-height="1017"
     inkscape:window-x="-8"
     inkscape:window-y="-8"
     inkscape:window-maximized="1"
     inkscape:current-layer="svg93" />
  <g
     id="g93"
     transform="matrix(0.96995159,0,0,0.96995159,6.7904283,-6.9478134)">
    <g
       stroke-width="2"
       fill="none"
       stroke-linecap="butt"
       id="g26">
      <path
         stroke="#74c8b8"
         vector-effect="non-scaling-stroke"
         d="m 128.34,182.23 q -18.63,0.01 -37.71,0.07 c -2.48,0.01 -6.72,0.9 -10.26,0.03"
         id="path1" />
      <path
         stroke="#6cc0b0"
         vector-effect="non-scaling-stroke"
         d="m 127.98,188.69 q -20.8,34.69 -32.04,53 -0.32,0.52 -0.11,0.99"
         id="path2" />
      <path
         stroke="#6cc0b0"
         vector-effect="non-scaling-stroke"
         d="m 91.56,271.8 q 4.24,0.67 3.81,-1.22"
         id="path3" />
      <path
         stroke="#6cc0b0"
         vector-effect="non-scaling-stroke"
         d="m 103.84,257.83 q 0.65,-0.05 1.06,-0.67 13.12,-19.77 26.84,-39.24"
         id="path4" />
      <path
         stroke="#6cc0b0"
         vector-effect="non-scaling-stroke"
         d="m 153.32,263.09 -20.28,30.53 q -0.13,0.2 0.06,0.35 0.11,0.09 0.24,0"
         id="path5" />
      <path
         stroke="#6cc0b0"
         vector-effect="non-scaling-stroke"
         d="m 22.7,312.06 -0.11,-0.52 q -0.07,-0.3 -0.35,-0.44 -7.19,-3.67 -10.76,-11.98"
         id="path6" />
      <path
         stroke="#6cc0b0"
         vector-effect="non-scaling-stroke"
         d="m 319.15,202.62 q -6.17,8.56 -11.73,17.4 c -1.52,2.42 -2.74,2.49 -5.43,2.47 q -10.6,-0.07 -43.81,0.07 -5.39,0.02 -5.77,3.47"
         id="path7" />
      <path
         stroke="#6cc0b0"
         vector-effect="non-scaling-stroke"
         d="m 199.63,307.18 c -2.14,2.22 -3.46,5.58 -5.86,7.21 q -0.41,0.28 -0.91,0.29 -24.26,0.37 -48.51,-0.46 c -0.85,-0.03 -1.38,-0.45 -1.65,-1.2"
         id="path8" />
      <path
         stroke="#6cc0b0"
         vector-effect="non-scaling-stroke"
         d="m 147.73,305.03 17.53,-28.75"
         id="path9" />
      <path
         stroke="#e0e0e2"
         vector-effect="non-scaling-stroke"
         d="m 455.75,385.35 q -0.07,-0.51 0.18,-0.97 0.21,-0.38 -0.22,-0.38 -0.15,0 -0.31,0 -0.41,0 -0.61,-0.36 -1.35,-2.39 1.5,-2.65 1.07,-0.09 0.2,-0.73 -3.85,-2.81 -7.24,0.54 -0.39,0.39 -0.95,0.42 -3.03,0.16 -6.07,0.08 c -2.72,-0.08 -5.8,0.85 -8.97,0 q -3.43,-0.91 -4.01,2.11 -0.11,0.59 -0.71,0.59 h -2.7 a 1.74,1.73 26.2 0 1 -1.06,-3.11 q 1.63,-1.25 2.85,-2.86 0.3,-0.39 -0.09,-0.69 -1.04,-0.84 -1.37,-2.21"
         id="path10" />
      <path
         stroke="#6cc0b0"
         vector-effect="non-scaling-stroke"
         d="m 327.13,190.35 q -0.14,-1.62 1.71,-3.28 a 0.82,0.82 0 0 0 -0.3,-1.4 l -11.87,-3.84"
         id="path11" />
      <path
         stroke="#6cc0b0"
         vector-effect="non-scaling-stroke"
         d="m 240.79,328.22 0.91,0.04"
         id="path12" />
      <path
         stroke="#db797f"
         vector-effect="non-scaling-stroke"
         d="m 398.77,238.92 -140.6,0.05"
         id="path13" />
      <path
         stroke="#b24141"
         vector-effect="non-scaling-stroke"
         d="m 401.73,240.88 q -5.19,4.79 -8.68,11.49 c -1.46,2.81 -2.81,4.36 -5.28,5.92 q -21.16,13.36 -41.98,27.23 -3.07,2.04 -2.97,6.33"
         id="path14" />
      <path
         stroke="#b24141"
         vector-effect="non-scaling-stroke"
         d="m 381.07,293.42 c -6.17,1.92 -9.84,10.07 -12.96,14.96 q -0.86,1.35 -2.46,1.35 -29.91,0.04 -59.16,0.02 -3.1,-0.01 -9.18,2.57 a 0.47,0.47 0 0 1 -0.65,-0.48 q 0.25,-2.27 1.76,-4.62"
         id="path15" />
      <path
         stroke="#b24141"
         vector-effect="non-scaling-stroke"
         d="m 354.75,259.82 q 0.16,-0.03 0.23,-0.23 a 0.27,0.27 0 0 0 -0.24,-0.35 q -1.46,-0.07 -1.21,-1.48 a 1.31,1.31 0 0 0 -1.31,-1.55 q -36.63,0.44 -72.91,0.04 -4.09,-0.04 -6.02,3.04 -5.66,9 -14.25,24.25 -1.86,3.3 0.2,6.84"
         id="path16" />
      <path
         stroke="#db797f"
         vector-effect="non-scaling-stroke"
         d="m 271.97,276.7 30.52,0.46 q 0.46,0.01 0.87,-0.23 l 0.9,-0.55"
         id="path17" />
      <path
         stroke="#b24141"
         vector-effect="non-scaling-stroke"
         d="m 306.15,278.48 q -5.24,1.54 -8.11,6.07 -8.22,12.95 -16.51,25.89 a 1.16,1.15 -76.4 0 1 -0.84,0.52 q -1.52,0.17 -4.19,0.21 -24.63,0.33 -49.25,0.38 -2.26,0.01 -7.56,-4.08"
         id="path18" />
      <path
         stroke="#aea09c"
         vector-effect="non-scaling-stroke"
         d="m 337.31,259.68 q -29.57,-1.03 -59.1,-0.52 -0.48,0 -0.85,0.3 -3.32,2.59 -4.16,6.89"
         id="path19" />
      <path
         stroke="#db797f"
         vector-effect="non-scaling-stroke"
         d="m 224.77,374.36 q 1.4,0.14 0.91,2.11 a 0.63,0.63 0 0 0 1,0.65 q 0.86,-0.66 0.6,-1.22"
         id="path20" />
      <path
         stroke="#db797f"
         vector-effect="non-scaling-stroke"
         d="m 374.8,383.81 q -1.22,3.85 -0.5,8.59"
         id="path21" />
      <path
         stroke="#db797f"
         vector-effect="non-scaling-stroke"
         d="m 246.98,388.93 q -2.16,0 -0.04,3.23"
         id="path22" />
      <path
         stroke="#db797f"
         vector-effect="non-scaling-stroke"
         d="m 296.32,377.18 7.1,0.73 a 0.77,0.76 89 0 1 0.68,0.66 l 0.32,2.19"
         id="path23" />
      <path
         stroke="#db797f"
         vector-effect="non-scaling-stroke"
         d="m 290.98,395.52 q -0.69,-0.23 -0.81,0.47 a 0.59,0.59 0 0 0 0.57,0.69 l 9.53,0.16"
         id="path24" />
      <path
         stroke="#db797f"
         vector-effect="non-scaling-stroke"
         d="m 301.78,400.28 -13.23,-0.05"
         id="path25" />
      <path
         stroke="#db797f"
         vector-effect="non-scaling-stroke"
         d="m 288.03,391.61 q 2.12,-1.34 3.45,-3.72"
         id="path26" />
    </g>
    <path
       fill="#e8e8ea"
       d="m 128.34,182.23 q -18.63,0.01 -37.71,0.07 c -2.48,0.01 -6.72,0.9 -10.26,0.03 l 6.3,-0.69 q 0.56,-0.06 0.71,-0.6 C 104.92,117.95 167.04,79 224.47,57.83 c 10.5,-3.87 21.46,-6.27 32.2,-9.48 a 0.82,0.83 61.3 0 1 0.87,0.25 q 0.81,0.97 1.78,0.21 0.41,-0.31 0.92,-0.31 h 12.43 a 0.38,0.37 39.1 0 1 0.08,0.74 q -4.54,0.91 -8.93,2.55 c -7.06,2.64 -11.65,4.21 -17.84,6.92 -48.7,21.35 -99.97,58.25 -114.9,112.33 -1.16,4.19 -3.81,6.22 -2.74,11.19 z"
       id="path27" />
    <path
       fill="#00a885"
       d="m 269.39,112.86 c -0.88,-3.53 1.82,-5.61 5.24,-4.42 q 0.53,0.18 0.54,0.74 0.09,5.4 -5.22,4.22 -0.45,-0.1 -0.56,-0.54 z"
       id="path28" />
    <path
       fill="#00a885"
       d="m 290.3,109.33 q 0.18,-1.19 1.38,-1.13 l 3.73,0.19 a 0.68,0.68 0 0 1 0.63,0.83 l -5.2,22.79 q -0.12,0.52 -0.64,0.5 c -4.5,-0.09 -13.08,1.77 -14.54,-4.41 q -1.87,-7.84 4.26,-12.4 c 2.57,-1.92 5.83,-2.08 8.19,0.1 a 0.77,0.78 25.6 0 0 1.29,-0.46 z m -7.7441,18.7843 a 3.53,4.98 17.7 0 0 4.877,-3.6711 3.53,4.98 17.7 0 0 -1.8488,-5.8175 3.53,4.98 17.7 0 0 -4.877,3.6711 3.53,4.98 17.7 0 0 1.8488,5.8175 z"
       id="path29" />
    <path
       fill="#00a885"
       d="m 327.49,119.76 a 0.6,0.6 0 0 0 1.05,-0.1 l 2.81,-6.75 q 0.22,-0.51 0.75,-0.34 l 3.52,1.15 q 0.59,0.19 0.38,0.76 l -7.22,20.23 a 2.07,2.08 12.8 0 1 -2.16,1.37 c -5,-0.5 -14.04,0.09 -13.13,-7.85 0.65,-5.63 4.27,-11.57 11.03,-10.32 q 1.96,0.37 2.97,1.85 z m -7.0713,11.708 a 3.42,5.17 25.2 0 0 5.2958,-3.2218 3.42,5.17 25.2 0 0 -0.8932,-6.1342 3.42,5.17 25.2 0 0 -5.2958,3.2218 3.42,5.17 25.2 0 0 0.8932,6.1342 z"
       id="path30" />
    <rect
       fill="#00a885"
       x="285.99979"
       y="59.551334"
       transform="rotate(11.1)"
       width="5.0799999"
       height="18.98"
       rx="1.79"
       id="rect30" />
    <path
       fill="#00a885"
       d="m 247.33,128.41 c 4.2,-4.21 5.99,4.39 10.36,-0.49 q 0.42,-0.46 -0.16,-0.68 c -2.45,-0.96 -5.68,-1.25 -7.4,-2.9 -2.4,-2.32 -1.59,-5.59 0.84,-7.52 q 4.26,-3.38 10.01,-0.9 2.4,1.04 2.28,2.9 a 1.81,1.8 11.6 0 1 -2.4,1.58 c -1.77,-0.61 -6.42,-3.1 -6.9,0.05 a 0.58,0.58 0 0 0 0.47,0.66 c 4.37,0.85 9.83,1.92 8.78,7.14 q -0.51,2.57 -3.09,3.91 -7.4,3.84 -12.83,-2.2 a 1.12,1.13 46.3 0 1 0.04,-1.55 z"
       id="path31" />
    <path
       fill="#00a885"
       d="m 299.77,122.87 c 2.36,-0.36 4.15,-0.73 6.24,-0.77 a 0.83,0.82 75.9 0 0 0.72,-1.21 q -0.81,-1.53 -2.3,-1.39 c -2.72,0.25 -3.08,3.34 -6.84,0.74 q -0.35,-0.25 -0.12,-0.6 5.03,-7.73 12.59,-2.49 c 3.56,2.46 0.24,10.07 -0.75,13.37 q -0.14,0.48 -0.07,0.98 0.25,1.93 -1.44,2.66 -0.47,0.2 -0.93,-0.02 l -2.85,-1.4 a 0.76,0.75 47.5 0 0 -0.61,-0.03 c -9.81,3.86 -11.93,-8.59 -3.64,-9.84 z m 5.093,4.1364 a 1.57,2.6 74.3 0 0 -2.9278,-0.8078 1.57,2.6 74.3 0 0 -2.0782,2.215 1.57,2.6 74.3 0 0 2.9278,0.8078 1.57,2.6 74.3 0 0 2.0782,-2.215 z"
       id="path32" />
    <path
       fill="#00a885"
       d="m 247.85,116.92 -0.74,2.76 a 0.82,0.83 0.7 0 1 -0.58,0.57 c -8.84,2.35 -3.27,9.08 -6.24,13.39 q -1.33,1.92 -3.22,1.14 a 2.8,2.79 13.6 0 1 -1.72,-2.8 l 1.11,-14.44 Q 236.5,117 237.04,117 h 4.73 q 0.51,0 0.99,-0.2 2.14,-0.92 4.43,-0.8 a 0.73,0.73 0 0 1 0.66,0.92 z"
       id="path33" />
    <path
       fill="#00a885"
       d="m 349,118.01 q 0.03,-0.05 1.72,-0.94 0.62,-0.33 1.88,0.29 0.97,0.47 1.76,0.64 5.77,1.27 11.74,2.59 a 1.76,1.76 0 0 1 1.18,2.53 l -1.1,2.12 a 0.79,0.79 0 0 1 -0.9,0.4 l -5.44,-1.39 q -0.59,-0.15 -0.84,0.4 L 351.46,141 a 0.59,0.6 18.5 0 1 -0.65,0.33 l -4.44,-0.86 q -0.74,-0.14 -0.41,-0.82 2.33,-4.79 4.87,-9.47 c 0.92,-1.69 1.18,-4.53 2.84,-5.98 a 1.03,1.04 32 0 0 -0.41,-1.78 l -4.67,-1.26 a 0.77,0.75 10.2 0 1 -0.56,-0.79 q 0.1,-1.26 0.97,-2.36 z"
       id="path34" />
    <path
       fill="#00a885"
       d="m 222.3,132.05 c 1.51,1.24 4.89,2.62 5.46,-0.31 a 0.79,0.78 2.5 0 1 0.69,-0.63 l 3.78,-0.4 a 0.5,0.5 0 0 1 0.49,0.73 c -0.93,1.75 -1.45,3.37 -3.07,4.55 -12.02,8.67 -19.76,-14.04 -4.7,-16.96 5.32,-1.03 8.45,4.35 8.04,9.1 q -0.03,0.44 -0.46,0.55 l -4.22,1.16 q -0.52,0.14 -1.06,0.13 -2.6,-0.06 -4.89,1.3 -0.58,0.35 -0.06,0.78 z m 1.09,-5.45 4.01,-0.22 a 0.73,0.73 0 0 0 0.69,-0.77 l -0.01,-0.1 a 2.63,2.56 86.9 0 0 -2.69,-2.49 l -0.36,0.02 a 2.63,2.56 86.9 0 0 -2.42,2.77 l 0.01,0.1 a 0.73,0.73 0 0 0 0.77,0.69 z"
       id="path35" />
    <path
       fill="#00a885"
       d="m 189.88,125.39 c -0.86,-3.84 0.72,-5.25 4.27,-5.83 a 0.73,0.73 0 0 1 0.85,0.72 v 3.66 q 0,0.62 -0.59,0.8 l -3.75,1.11 a 0.62,0.62 0 0 1 -0.78,-0.46 z"
       id="path36" />
    <path
       fill="#00a885"
       d="m 205.62,132.44 a 0.56,0.56 0 0 0 1.05,-0.04 l 3.15,-9.85 q 0.19,-0.6 0.82,-0.54 1.73,0.14 3.24,-0.77 a 0.85,0.85 0 0 1 1.23,1.04 q -3.43,8.87 -5.76,16.47 c -0.73,2.37 -4.23,3.63 -5.47,1.09 q -3.43,-7.03 -6.17,-14.34 -0.2,-0.53 0.36,-0.62 l 3.69,-0.6 q 0.52,-0.09 0.71,0.4 z"
       id="path37" />
    <path
       fill="#00a885"
       d="m 195.5,127.26 1.18,16.28 q 0.05,0.59 -0.52,0.72 l -3.9,0.93 q -0.52,0.12 -0.62,-0.4 -1.33,-7.03 -1.15,-14.17 0.01,-0.42 -0.09,-0.82 l -0.45,-1.78 q -0.12,-0.49 0.37,-0.62 l 3.9,-1.05 a 1.02,1.02 0 0 1 1.28,0.91 z"
       id="path38" />
    <path
       fill="#00a885"
       d="m 177,132.9 c 2.76,-4.61 8.76,-4.17 9.7,1.62 q 0.76,4.74 1.06,9.55 c 0.18,2.95 -1.38,3.41 -3.9,3.58 a 0.88,0.88 0 0 1 -0.93,-0.78 l -1.25,-11.39 a 1.34,1.34 0 0 0 -2.02,-1 c -5.8,3.44 0.42,13.53 -2.8,15.83 -0.89,0.63 -2.34,0.4 -3.49,1.14 a 0.53,0.53 0 0 1 -0.82,-0.4 L 171,134.18 q -0.03,-0.33 0.24,-0.51 2.46,-1.64 5.22,-0.58 0.35,0.13 0.54,-0.19 z"
       id="path39" />
    <path
       fill="#00a885"
       d="m 156.97,153.36 c 11.08,0.11 1.47,-15.73 2.64,-21.46 q 0.11,-0.53 0.61,-0.72 l 3.19,-1.19 q 1.03,-0.39 1.21,0.7 c 1.34,8.26 7.09,20.84 -2.4,26.06 -6.68,3.66 -11.28,0.56 -12.84,-6.23 q -1.37,-5.95 -2.84,-11.94 -0.15,-0.59 0.35,-0.94 l 3.58,-2.53 q 0.66,-0.48 0.87,0.31 1.91,7.22 3.24,14.56 0.33,1.81 1.55,3.03 0.35,0.34 0.84,0.35 z"
       id="path40" />
    <path
       fill="#00a885"
       d="m 373.99,143.71 q 0.56,0.07 0.91,0.54 a 0.85,0.85 0 0 1 -0.08,1.11 q -1.69,1.66 -4.06,1.95 -0.5,0.06 -0.85,0.42 -0.66,0.68 -1.45,0.11 -0.4,-0.29 -0.87,-0.4 c -7.18,-1.62 -8.36,-8.84 -4.29,-13.98 6.29,-7.96 20.57,-1.62 13.63,9.1 q -0.26,0.4 -0.68,0.18 -3.59,-1.9 -7.57,-2.62 a 1.61,1.63 71.1 0 1 -0.79,-0.38 q -0.93,-0.81 -1.99,-0.01 a 1.19,1.19 0 0 0 -0.33,1.51 q 2.21,4.07 5.11,1.88 0.74,-0.56 1.11,-0.63 0.94,-0.21 1.4,0.67 0.26,0.49 0.8,0.55 z m -0.46,-6.42 0.25,-2.49 a 0.41,0.41 0 0 0 -0.36,-0.45 l -0.38,-0.03 a 4.61,1.61 5.9 0 0 -4.75,1.12 l -0.01,0.1 a 4.61,1.61 5.9 0 0 4.42,2.08 l 0.38,0.04 a 0.41,0.41 0 0 0 0.45,-0.37 z"
       id="path41" />
    <path
       fill="#00a885"
       d="m 382.8,153.9 c -2.65,-0.81 -5.37,-4.64 -4.69,-7.49 q 1.86,-7.82 9.31,-8.66 c 5.47,-0.63 9.75,1.92 9.5,7.9 q -0.03,0.64 -0.66,0.74 -2.47,0.39 -4.4,-1.18 -0.46,-0.37 -0.32,-0.95 0.61,-2.6 -2.57,-3.01 -0.51,-0.07 -0.97,0.19 c -1.66,0.91 -8.11,6.89 -3.41,8.47 q 1.72,0.58 3,-0.87 a 0.93,0.93 0 0 1 1.13,-0.19 l 3.73,2.09 q 0.65,0.36 0.08,0.85 -4.35,3.74 -9.73,2.11 z"
       id="path42" />
    <path
       fill="#00a885"
       d="m 407.12,146.95 q 0.6,0.24 0.86,-0.14 0.26,-0.39 0.7,-0.23 c 3.05,1.09 8.06,3.13 5.58,7.37 q -1.7,2.94 -8.2,10.45 -0.44,0.51 -1.03,0.17 l -2.65,-1.56 q -0.49,-0.3 -0.34,-0.86 c 1,-3.7 5.24,-6.04 6.97,-10.06 a 0.82,0.84 20.1 0 0 -0.51,-1.12 c -4.46,-1.38 -5.69,1.38 -8.51,3.76 q -0.34,0.29 -0.5,0.71 -0.84,2.28 -2.81,3.73 -0.42,0.31 -0.9,0.11 l -2.81,-1.19 a 1.1,1.09 30.1 0 1 -0.45,-1.67 q 2.48,-3.25 5.02,-6.05 c 1.55,-1.71 3.18,-4.72 5.88,-6.39 a 0.71,0.71 0 0 1 0.81,0.04 l 2.41,1.84 q 0.32,0.24 0.35,0.65 0.01,0.12 0.01,0.25 0,0.13 0.12,0.19 z"
       id="path43" />
    <path
       fill="#00a885"
       d="m 430.9344,161.2898 a 8.68,9.74 72.8 0 1 -6.7377,11.172 8.68,9.74 72.8 0 1 -11.8711,-5.4116 8.68,9.74 72.8 0 1 6.7377,-11.172 8.68,9.74 72.8 0 1 11.8711,5.4116 z m -5.3244,-0.3497 a 3.58,5.06 51.5 0 0 -6.1886,0.3482 3.58,5.06 51.5 0 0 -1.7314,5.9516 3.58,5.06 51.5 0 0 6.1886,-0.3482 3.58,5.06 51.5 0 0 1.7314,-5.9516 z"
       id="path44" />
    <path
       fill="#d7d8da"
       d="m 455.75,385.35 q -0.07,-0.51 0.18,-0.97 0.21,-0.38 -0.22,-0.38 -0.15,0 -0.31,0 -0.41,0 -0.61,-0.36 -1.35,-2.39 1.5,-2.65 1.07,-0.09 0.2,-0.73 -3.85,-2.81 -7.24,0.54 -0.39,0.39 -0.95,0.42 -3.03,0.16 -6.07,0.08 c -2.72,-0.08 -5.8,0.85 -8.97,0 q -3.43,-0.91 -4.01,2.11 -0.11,0.59 -0.71,0.59 h -2.7 a 1.74,1.73 26.2 0 1 -1.06,-3.11 q 1.63,-1.25 2.85,-2.86 0.3,-0.39 -0.09,-0.69 -1.04,-0.84 -1.37,-2.21 9.12,-14.66 13.66,-31.32 c 0.65,-2.38 2.62,-4.72 2.8,-6.9 3.53,-42.31 -15.89,-81.29 -46.3,-109.76 q -27.26,-25.53 -65.49,-40.59 -0.4,-0.16 -0.67,0.17 l -3.04,3.62 q -0.14,-1.62 1.71,-3.28 a 0.82,0.82 0 0 0 -0.3,-1.4 l -11.87,-3.84 q -17.38,-6.24 -30.42,-8.82 c -50.15,-9.96 -102.67,-8.96 -153.76,0.95 q -0.95,0.18 -1.4,-0.18 -0.53,-0.44 0.14,-0.6 c 11.85,-2.79 23.88,-6.11 35.47,-8.28 17.86,-3.33 31.32,-5.53 48.74,-6.44 q 25.66,-1.34 51.3,-0.21 c 59.03,2.61 120.23,21.32 165.99,59.26 q 26.85,22.27 42.56,54.94 c 19.33,40.19 8.53,80.68 -19.54,112.9 z"
       id="path45" />
    <path
       fill="#00a885"
       d="m 446.64,163.27 a 0.42,0.42 0 0 1 -0.01,0.59 l -0.2,0.19 a 0.84,23.9 46.4 0 1 -17.89,15.88 l -2.63,-2.77 a 0.84,23.9 46.4 0 1 16.72,-17.09 l 0.21,-0.19 a 0.42,0.42 0 0 1 0.59,0.01 z"
       id="path46" />
    <path
       fill="#00a885"
       d="m 459.48,171.45 a 1.01,1.01 0 0 1 -0.7,1.82 q -2.31,-0.24 -4.39,0.56 -0.48,0.19 -0.9,-0.1 l -2.22,-1.52 a 0.59,0.58 46.5 0 1 0.02,-0.99 q 4.25,-2.6 8.19,0.23 z"
       id="path47" />
    <path
       fill="#00a885"
       d="m 437.58,177.07 c 5.1,-6.5 12.67,-6.97 17.23,0.38 2.91,4.7 -0.59,7.01 -3.56,10.22 q -0.97,1.05 -2.18,1.38 -9.88,2.69 -13.18,-7.14 -0.16,-0.47 0.02,-0.93 c 0.54,-1.41 0.74,-2.73 1.67,-3.91 z m 12.7634,1.2147 a 3.56,5.19 59.1 0 0 -6.2816,-0.3894 3.56,5.19 59.1 0 0 -2.6252,5.72 3.56,5.19 59.1 0 0 6.2816,0.3894 3.56,5.19 59.1 0 0 2.6252,-5.72 z"
       id="path48" />
    <path
       fill="#00a885"
       d="m 316.67,181.83 11.87,3.84 a 0.82,0.82 0 0 1 0.3,1.4 q -1.85,1.66 -1.71,3.28 l -7.98,12.27 q -6.17,8.56 -11.73,17.4 c -1.52,2.42 -2.74,2.49 -5.43,2.47 q -10.6,-0.07 -43.81,0.07 -5.39,0.02 -5.77,3.47 l -52.78,81.15 c -2.14,2.22 -3.46,5.58 -5.86,7.21 q -0.41,0.28 -0.91,0.29 -24.26,0.37 -48.51,-0.46 c -0.85,-0.03 -1.38,-0.45 -1.65,-1.2 l 5.03,-7.99 17.53,-28.75 33.94,-54.99 A 0.85,0.85 0 0 0 198.48,220 h -14.94 a 0.82,0.83 10.9 0 1 -0.76,-1.13 q 7.64,-19.18 19.6,-35.97 a 2.22,2.24 18 0 1 1.81,-0.93 z"
       id="path49" />
    <path
       fill="#00a885"
       d="m 128.34,182.23 q 2.27,-0.65 3.13,-0.06 0.52,0.35 0.18,0.87 l -3.67,5.65 q -20.8,34.69 -32.04,53 -0.32,0.52 -0.11,0.99 -0.53,0.06 -0.65,0.26 -7.85,13.37 -15.89,26.66 -0.25,0.4 0.11,0.72 c 2.76,2.43 8.12,1.98 12.16,1.48 q 4.24,0.67 3.81,-1.22 l 8.47,-12.75 q 0.65,-0.05 1.06,-0.67 13.12,-19.77 26.84,-39.24 c 15.84,2.04 32.56,1.08 48.55,1.08 a 0.86,0.85 16.5 0 1 0.72,1.32 l -27.69,42.77 -20.28,30.53 q -0.13,0.2 0.06,0.35 0.11,0.09 0.24,0 l -12.26,18.69 q -1.2,1.84 -3.39,1.84 -41.89,0.01 -85.12,0 c -3.71,0 -6.57,-1.11 -9.87,-2.44 l -0.11,-0.52 q -0.07,-0.3 -0.35,-0.44 -7.19,-3.67 -10.76,-11.98 -0.47,-1.69 -1.24,-3.62 c -1.93,-4.83 0.18,-10 3.01,-14.25 q 32.88,-49.32 65.73,-98.66 a 0.82,0.8 20.5 0 1 0.79,-0.35 l 0.6,0.09 c 3.54,0.87 7.78,-0.02 10.26,-0.03 q 19.08,-0.06 37.71,-0.07 z"
       id="path50" />
    <path
       fill="#00a885"
       d="m 456.57,199.98 q -0.13,-0.02 -0.26,0 -0.58,0.08 -1.07,-0.24 -2.7,-1.76 -4,-4.67 a 1.28,1.29 44.1 0 1 -0.01,-1.03 c 1.61,-3.78 5.28,-8.97 9.91,-8.83 q 0.48,0.02 0.82,-0.33 0.15,-0.16 0.35,-0.25 0.16,-0.07 0.37,-0.03 4.47,0.87 6.47,4.92 a 1.98,2 4 0 0 0.61,0.71 l 4.83,3.43 q 0.67,0.48 -0.03,0.93 -6.11,3.96 -11.76,8.46 -1.31,1.05 -2.08,1.33 a 2.13,2.25 13.4 0 0 -0.81,0.53 c -5.96,6.06 -17.19,-4.55 -12.61,-9.65 a 1.44,1.45 61.1 0 1 2.5,0.72 q 0.16,0.95 0.88,1.56 a 0.98,1.01 16.2 0 1 0.36,0.68 q 0.51,5.56 5.75,3.22 a 0.76,0.77 36.2 0 0 -0.22,-1.46 z m 9.1392,-9.142 a 3.32,5.08 57.6 0 0 -6.0681,-0.0812 3.32,5.08 57.6 0 0 -2.5103,5.5252 3.32,5.08 57.6 0 0 6.0681,0.0812 3.32,5.08 57.6 0 0 2.5103,-5.5252 z"
       id="path51" />
    <path
       fill="#d7d8da"
       d="m 127.98,188.69 c 0.1,5.77 -0.05,11.33 1.14,16.99 q 1.29,6.19 2.62,12.24 -13.72,19.47 -26.84,39.24 -0.41,0.62 -1.06,0.67 l -8.01,-15.15 q -0.21,-0.47 0.11,-0.99 11.24,-18.31 32.04,-53 z"
       id="path52" />
    <path
       fill="#00a885"
       d="m 480.71,197.1 q -0.71,-0.54 -0.16,-1.25 1.17,-1.48 3.11,-1.61 0.55,-0.04 0.9,0.38 l 1.95,2.3 q 0.44,0.52 -0.12,0.92 l -1.92,1.36 q -0.55,0.4 -1.09,-0.02 z"
       id="path53" />
    <rect
       fill="#00a885"
       x="269.28107"
       y="430.39896"
       transform="rotate(-33.9)"
       width="18.4"
       height="5"
       rx="0.28"
       id="rect53" />
    <path
       fill="#d7d8da"
       d="m 319.15,202.62 -13.05,20.34 q -0.35,0.54 -0.99,0.54 h -48.34 a 1.76,1.72 27.9 0 0 -0.95,0.28 l -3.41,2.25 q 0.38,-3.45 5.77,-3.47 33.21,-0.14 43.81,-0.07 c 2.69,0.02 3.91,-0.05 5.43,-2.47 q 5.56,-8.84 11.73,-17.4 z"
       id="path54" />
    <path
       fill="#00a885"
       d="m 477.3,215.16 q 1.42,3.06 4.53,1.9 0.58,-0.22 1.07,0.16 1.91,1.46 2.19,3.82 a 0.6,0.6 0 0 1 -0.58,0.67 l -6.33,0.14 a 0.77,0.76 65.2 0 1 -0.54,-0.2 c -3.1,-2.75 -4.74,-4.66 -4.63,-9.02 q 0.01,-0.48 0.29,-0.86 c 2.61,-3.49 6.33,-6.85 10.96,-6.29 5.08,0.62 10.14,6.66 6.85,11.8 a 0.74,0.76 32.2 0 1 -1.02,0.24 l -3.02,-1.88 a 0.72,0.72 0 0 1 -0.11,-1.14 q 1.42,-1.3 0.47,-3.17 a 0.99,0.97 82.6 0 0 -0.66,-0.52 q -5.92,-1.32 -9.4,3.58 a 0.77,0.76 50.8 0 0 -0.07,0.77 z"
       id="path55" />
    <path
       fill="#00a885"
       d="m 489.05,233.01 c -6.78,-1.1 -6.45,-9.86 0.14,-10.54 2.94,-0.31 6.85,3.53 8.7,5.48 a 1.18,1.18 0 0 0 1.88,-1.41 q -1.24,-2.12 -3.49,-2.37 -0.62,-0.07 -0.94,-0.6 l -1.48,-2.45 a 0.7,0.7 0 0 1 0.52,-1.06 c 7.35,-0.87 14.65,8.58 6.19,12.57 q -4.71,2.22 -8.87,5.23 -0.43,0.31 -0.72,-0.14 l -2.04,-3.19 q -0.24,-0.38 0.08,-0.68 0.12,-0.11 0.22,-0.21 0.53,-0.52 -0.19,-0.63 z m 2.51,-5.82 q -2.58,-0.9 -2.78,1.5 a 1.82,1.81 81.3 0 0 2.49,1.83 q 1.39,-0.57 2.68,0.03 a 0.34,0.34 0 0 0 0.45,-0.47 q -1.29,-2.35 -2.84,-2.89 z"
       id="path56" />
    <path
       fill="#d7d8da"
       d="m 398.77,238.92 -140.6,0.05 q 0.17,-0.67 0.58,-0.67 68.65,-0.05 137.29,-0.05 c 0.96,0 1.84,0.35 2.73,0.67 z"
       id="path57" />
    <path
       fill="#df1a23"
       d="m 258.17,238.97 140.6,-0.05 q 1.57,0.47 2.96,1.96 -5.19,4.79 -8.68,11.49 c -1.46,2.81 -2.81,4.36 -5.28,5.92 q -21.16,13.36 -41.98,27.23 -3.07,2.04 -2.97,6.33 l 38.48,0.12 a 0.43,0.43 0 0 1 0.41,0.58 q -0.19,0.53 -0.64,0.87 c -6.17,1.92 -9.84,10.07 -12.96,14.96 q -0.86,1.35 -2.46,1.35 -29.91,0.04 -59.16,0.02 -3.1,-0.01 -9.18,2.57 a 0.47,0.47 0 0 1 -0.65,-0.48 q 0.25,-2.27 1.76,-4.62 c 2.05,-5.14 5.43,-13.61 10.15,-16.82 7.49,-5.1 13.6,-8.43 19.83,-12.95 1.49,-1.08 3.61,-2.07 5.59,-3.43 q 10.38,-7.13 21.15,-13.66 0.31,-0.18 -0.39,-0.54 0.16,-0.03 0.23,-0.23 a 0.27,0.27 0 0 0 -0.24,-0.35 q -1.46,-0.07 -1.21,-1.48 a 1.31,1.31 0 0 0 -1.31,-1.55 q -36.63,0.44 -72.91,0.04 -4.09,-0.04 -6.02,3.04 -5.66,9 -14.25,24.25 -1.86,3.3 0.2,6.84 3.93,1.17 7.42,0.41 0.56,-0.12 0.86,-0.61 l 3.37,-5.51 Q 271.3,284 270.51,284 h -2.77 a 0.82,0.82 0 0 1 -0.64,-1.33 l 4.87,-5.97 30.52,0.46 q 0.46,0.01 0.87,-0.23 l 0.9,-0.55 q 0.71,-0.19 1.46,-0.15 0.99,0.04 1.14,0.65 0.15,0.64 -0.71,1.6 -5.24,1.54 -8.11,6.07 -8.22,12.95 -16.51,25.89 a 1.15,1.16 13.6 0 1 -0.84,0.52 q -1.52,0.17 -4.19,0.21 -24.63,0.33 -49.25,0.38 -2.26,0.01 -7.56,-4.08 c -2.98,-4.76 -1.56,-8.37 1.49,-12.99 q 18.5,-28.03 36.99,-55.51 z"
       id="path58" />
    <path
       fill="#84675e"
       d="m 401.73,240.88 q 0.94,0.2 1.7,0.94 0.4,0.39 0.1,0.87 l -8.73,13.98 q -1.26,2.01 -3.25,3.32 l -48.73,31.86 q -0.1,-4.29 2.97,-6.33 20.82,-13.87 41.98,-27.23 c 2.47,-1.56 3.82,-3.11 5.28,-5.92 q 3.49,-6.7 8.68,-11.49 z"
       id="path59" />
    <path
       fill="#84675e"
       d="m 354.75,259.82 -17.44,-0.14 q -29.57,-1.03 -59.1,-0.52 -0.48,0 -0.85,0.3 -3.32,2.59 -4.16,6.89 -7.65,11.2 -13.96,24.03 -2.06,-3.54 -0.2,-6.84 8.59,-15.25 14.25,-24.25 1.93,-3.08 6.02,-3.04 36.28,0.4 72.91,-0.04 a 1.31,1.31 0 0 1 1.31,1.55 q -0.25,1.41 1.21,1.48 a 0.27,0.27 0 0 1 0.24,0.35 q -0.07,0.2 -0.23,0.23 z"
       id="path60" />
    <path
       fill="#d7d8da"
       d="m 337.31,259.68 -59.52,0.28 a 1,1.02 16.5 0 0 -0.85,0.47 l -3.74,5.92 q 0.84,-4.3 4.16,-6.89 0.37,-0.3 0.85,-0.3 29.53,-0.51 59.1,0.52 z"
       id="path61" />
    <path
       fill="#d7d8da"
       d="m 153.32,263.09 q 5.76,8.02 9.99,12.6 0.86,0.92 1.95,0.59 l -17.53,28.75 q -6.49,-5.27 -12.88,-11.14 -0.37,-0.34 -1.51,0.08 -0.13,0.09 -0.24,0 -0.19,-0.15 -0.06,-0.35 z"
       id="path62" />
    <path
       fill="#d7d8da"
       d="m 95.37,270.58 q 0.43,1.89 -3.81,1.22 z"
       id="path63" />
    <path
       fill="#d7d8da"
       d="m 304.26,276.38 -0.9,0.55 q -0.41,0.24 -0.87,0.23 l -30.52,-0.46 q 16.07,-0.88 32.29,-0.32 z"
       id="path64" />
    <path
       fill="#84675e"
       d="m 306.15,278.48 -23.25,36.33 q -0.29,0.44 -0.81,0.44 -25.93,0 -51.84,0 -7.58,0 -10.56,-7.78 5.3,4.09 7.56,4.08 24.62,-0.05 49.25,-0.38 2.67,-0.04 4.19,-0.21 a 1.15,1.16 13.6 0 0 0.84,-0.52 q 8.29,-12.94 16.51,-25.89 2.87,-4.53 8.11,-6.07 z"
       id="path65" />
    <path
       fill="#84675e"
       d="m 381.07,293.42 -12.21,19 a 2.89,2.88 16.3 0 1 -2.43,1.33 h -69.14 a 1.71,1.72 4.3 0 1 -1.69,-1.98 q 0.39,-2.59 2.82,-4.55 -1.51,2.35 -1.76,4.62 a 0.47,0.47 0 0 0 0.65,0.48 q 6.08,-2.58 9.18,-2.57 29.25,0.02 59.16,-0.02 1.6,0 2.46,-1.35 c 3.12,-4.89 6.79,-13.04 12.96,-14.96 z"
       id="path66" />
    <path
       fill="#d7d8da"
       d="m 11.48,299.12 q 3.57,8.31 10.76,11.98 0.28,0.14 0.35,0.44 l 0.11,0.52 -0.53,-0.07 q -0.44,-0.06 -0.82,-0.31 c -2.69,-1.78 -8.9,-6.46 -9.5,-9.74 q -0.24,-1.27 -0.37,-2.82 z"
       id="path67" />
    <path
       fill="#d7d8da"
       d="m 199.63,307.18 q 19.12,12.09 40.2,20.96 0.4,0.17 0.96,0.08 l 0.91,0.04 0.12,0.35 q 0.14,0.42 0.56,0.58 c 42.16,15.32 86.9,21.35 131.64,19 21.85,-1.14 43.3,-3.04 64.48,-7.94 q 0.85,-0.19 1.27,0.15 0.55,0.45 -0.14,0.66 c -88.14,25.96 -191.28,22.97 -272.69,-23.49 q -1.95,-1.11 -4.16,-1.23 -10.1,-0.59 -20.18,-1.23 -0.46,-0.03 -0.58,-0.48 -0.29,-1.2 0.68,-1.61 c 0.27,0.75 0.8,1.17 1.65,1.2 q 24.25,0.83 48.51,0.46 0.5,-0.01 0.91,-0.29 c 2.4,-1.63 3.72,-4.99 5.86,-7.21 z"
       id="path68" />
    <path
       fill="#df1a23"
       d="m 157.74,367.12 c -5.98,1.03 -13.54,-1.42 -16.16,-7.59 q -0.76,-1.78 -0.08,-4.14 2.49,-8.6 10.74,-11.59 c 3.99,-1.44 7.38,0 10.78,2.02 2.1,1.24 4.51,5.51 4.2,7.9 q -0.27,2.11 -2.37,1.73 -3.1,-0.55 -2.9,-3.8 a 0.72,0.72 0 0 0 -0.16,-0.48 q -3.52,-4.37 -9.16,-2.52 -0.44,0.14 -0.75,0.49 c -2.56,2.86 -5.31,4.62 -5.12,9.24 q 0.02,0.52 0.39,0.89 3.73,3.77 9,2.4 a 1.11,1.11 0 0 0 0.07,-2.13 l -2.99,-0.97 q -1.31,-0.43 -0.78,-1.71 c 1.26,-3 3,-3.02 5.67,-1.51 q 3,1.71 6.27,2.86 0.47,0.16 0.17,0.56 l -6.03,7.88 q -0.3,0.39 -0.79,0.47 z"
       id="path70" />
    <path
       fill="#df1a23"
       d="m 184.44,363.2 -9.27,13.17 q -0.26,0.37 -0.69,0.25 -2.21,-0.62 -3.89,-2.03 -0.39,-0.33 -0.9,-0.31 -5.57,0.19 -7.54,-5.04 -0.21,-0.54 0.11,-1.04 l 7.58,-11.88 q 0.36,-0.57 0.95,-0.24 l 3.51,1.97 q 0.47,0.26 0.18,0.71 l -6.48,10 a 1.47,1.47 0 0 0 1.13,2.26 c 5.43,0.39 8,-7.96 11.51,-10.66 q 0.49,-0.38 0.92,0.06 0.76,0.77 1.95,0.85 a 1.23,1.22 19.4 0 1 0.93,1.93 z"
       id="path71" />
    <path
       fill="#df1a23"
       d="m 194.71,364.73 q 1.85,1.97 0.2,3.79 -1.03,1.14 -2.99,-0.14 a 0.7,0.7 0 0 0 -1.05,0.36 l -0.52,1.58 q -0.16,0.51 -0.49,0.92 -1.74,2.15 -2.87,4.72 a 0.61,0.62 26.1 0 0 0.27,0.79 q 2.58,1.43 0.51,3.83 -0.41,0.47 -1.04,0.47 c -2.99,0 -7.15,-2.3 -5.16,-6.07 q 1.97,-3.71 4.34,-7.2 0.28,-0.41 0.06,-0.86 -0.33,-0.68 -1.02,-0.68 -0.75,0.01 -0.45,-0.68 1.08,-2.47 3.67,-2.64 0.5,-0.03 0.83,-0.4 2.43,-2.74 6.32,-2.82 a 0.79,0.8 15.7 0 1 0.68,1.22 l -1.44,2.29 q -0.51,0.82 0.15,1.52 z"
       id="path72" />
    <path
       fill="#df1a23"
       d="m 199.35,365.99 c -0.65,-3.83 2.83,-6.06 6.24,-3.88 q 0.42,0.27 0.2,0.71 l -1.63,3.38 q -0.3,0.61 -0.91,0.34 l -1.95,-0.86 q -0.42,-0.19 -0.86,-0.05 z"
       id="path73" />
    <path
       fill="#df1a23"
       d="m 220.93,365.93 q 0.09,0.11 0.12,0.26 0.09,0.41 -0.29,0.61 l -6.27,3.28 a 0.54,0.54 0 0 1 -0.6,-0.06 l -1.44,-1.12 q -0.48,-0.38 -0.26,-0.95 0.54,-1.4 1.96,-1.49 0.46,-0.03 0.78,-0.37 l 1.05,-1.13 q 0.4,-0.42 0.87,-0.09 c 1.23,0.87 3.74,0.64 4.08,1.06 z"
       id="path74" />
    <path
       fill="#df1a23"
       d="m 199.35,365.99 q 0.83,1.68 2.7,1.22 a 0.7,0.69 8 0 1 0.77,1.02 l -8.14,14.19 q -0.22,0.4 -0.67,0.51 -2.36,0.58 -3.95,-1.03 -0.41,-0.42 -0.18,-0.95 2.36,-5.56 5.92,-10.33 c 1.13,-1.51 1.27,-3.9 3.55,-4.63 z"
       id="path75" />
    <path
       fill="#df1a23"
       d="m 205.06,380.23 c 1.01,7.24 5.44,0.54 9.75,4.12 a 0.67,0.67 0 0 1 -0.56,1.17 q -1.01,-0.21 -1.56,0.69 a 1.07,1.07 0 0 1 -0.53,0.44 l -3.39,1.28 q -0.42,0.16 -0.84,0 c -5.14,-1.93 -9.9,-3.96 -7.48,-10.71 q 2.52,-7.03 9.99,-7.24 0.49,-0.02 0.95,0.19 l 4.22,1.92 q 0.43,0.19 0.67,0.61 2.72,4.76 -0.14,9.54 -0.23,0.39 -0.66,0.26 l -9.83,-2.78 q -0.69,-0.2 -0.59,0.51 z m 2.45,-3.29 4.71,0.9 a 0.68,0.68 0 0 0 0.8,-0.54 l 0.01,-0.09 a 2.63,2.59 10.8 0 0 -2.09,-3.04 l -0.89,-0.16 a 2.63,2.59 10.8 0 0 -3.07,2.05 l -0.01,0.09 a 0.68,0.68 0 0 0 0.54,0.79 z"
       id="path76" />
    <path
       fill="#df1a23"
       d="m 383.42,380.19 a 1.55,1.55 0 0 1 -1.45,-2.35 c 3.97,-6.63 16.73,-7.16 14.38,3.45 q -0.83,3.75 0.65,7.46 a 0.67,0.65 60.3 0 1 -0.2,0.76 q -2.25,1.81 -4.76,0.71 -0.56,-0.25 -1.06,0.11 c -1.67,1.2 -3.73,2.51 -5.81,1.97 -2.85,-0.74 -4.65,-4.05 -3.95,-6.76 0.82,-3.14 5.23,-5.1 8.19,-5.42 a 1.31,1.92 52.6 0 0 1.03,-3.11 h -1.78 a 0.92,0.93 13.8 0 0 -0.82,0.5 q -1.29,2.44 -4.42,2.68 z m 6.57,3.3 -3.9,1.86 a 0.39,0.39 0 0 0 -0.19,0.52 l 0.12,0.25 a 2.37,2.44 64.5 0 0 3.23,1.09 l 0.19,-0.1 a 2.37,2.44 64.5 0 0 1.19,-3.19 l -0.12,-0.25 a 0.39,0.39 0 0 0 -0.52,-0.18 z"
       id="path77" />
    <path
       fill="#df1a23"
       d="m 224.77,374.36 q 1.4,0.14 0.91,2.11 a 0.63,0.63 0 0 0 1,0.65 q 0.86,-0.66 0.6,-1.22 3.29,-2.18 5.67,0.52 0.4,0.47 -0.02,0.92 l -2.17,2.32 q -0.38,0.41 -0.91,0.22 -4.12,-1.4 -5.88,2.74 -0.2,0.47 -0.57,0.82 c -0.88,0.84 -0.58,1.73 -1.06,2.67 q -0.99,1.97 -1.92,3.99 a 1.16,1.17 11.3 0 1 -1.01,0.68 q -2.34,0.09 -4.32,-1.15 -0.57,-0.36 -0.12,-0.85 c 1.75,-1.92 1.95,-4.36 3.02,-6.29 q 2.12,-3.8 3.97,-7.69 0.46,-0.97 1.09,-1.07 0.82,-0.14 1.72,0.63 z"
       id="path78" />
    <path
       fill="#d7d8da"
       d="m 227.28,375.9 q 0.26,0.56 -0.6,1.22 a 0.63,0.63 0 0 1 -1,-0.65 q 0.49,-1.97 -0.91,-2.11 0.7,-0.3 1.3,-0.29 a 0.82,0.8 80.3 0 1 0.76,0.55 z"
       id="path79" />
    <path
       fill="#df1a23"
       d="m 374.8,383.81 q -1.22,3.85 -0.5,8.59 0.07,1.81 -4.08,2.6 -0.94,0.17 -1.13,-0.76 c -0.79,-3.79 2.29,-5.72 0.08,-9.42 q -0.26,-0.44 -0.07,-0.91 1.08,-2.71 0.88,-5.64 a 1.29,1.29 0 0 1 1.06,-1.36 l 3.09,-0.55 a 0.76,0.77 74.8 0 1 0.86,0.49 l 0.22,0.59 a 0.38,0.39 49.3 0 0 0.7,0.05 q 1.43,-2.54 4.47,-2.38 0.97,0.05 0.73,0.99 l -0.89,3.51 q -0.14,0.57 -0.73,0.53 -2.88,-0.22 -4.69,3.67 z"
       id="path80" />
    <path
       fill="#e8e8ea"
       d="m 426.17,375.13 q 0.33,1.37 1.37,2.21 0.39,0.3 0.09,0.69 -1.22,1.61 -2.85,2.86 a 1.74,1.73 26.2 0 0 1.06,3.11 h 2.7 q 0.6,0 0.71,-0.59 0.58,-3.02 4.01,-2.11 c 3.17,0.85 6.25,-0.08 8.97,0 q 3.04,0.08 6.07,-0.08 0.56,-0.03 0.95,-0.42 3.39,-3.35 7.24,-0.54 0.87,0.64 -0.2,0.73 -2.85,0.26 -1.5,2.65 0.2,0.36 0.61,0.36 0.16,0 0.31,0 0.43,0 0.22,0.38 -0.25,0.46 -0.18,0.97 c -35.47,41.32 -88.48,68.53 -140.95,80.59 q -0.5,0.12 -0.98,-0.08 c -1.55,-0.63 -2.71,0.14 -4.06,0.15 q -5.85,0.05 -11.47,-0.05 a 0.38,0.38 0 0 1 -0.09,-0.75 c 3.84,-1 7.7,-1.86 11.36,-3.22 44.78,-16.66 90.77,-44.85 116.61,-86.86 z"
       id="path81"
       style="fill:#d7d8da;fill-opacity:1" />
    <path
       fill="#df1a23"
       d="m 246.98,388.93 q -2.16,0 -0.04,3.23 l 3.91,0.29 q 0.52,0.04 0.97,-0.23 1.65,-0.98 3.49,-0.17 1.46,0.65 0.65,2.02 c -1.74,2.98 -7.43,3.63 -10.18,2.28 -4.87,-2.38 -5.18,-9.01 -2.39,-13.03 a 0.8,0.8 0 0 0 -0.51,-1.24 c -6.45,-1.23 -8.23,6.06 -10.16,10.57 q -0.18,0.42 -0.62,0.54 -2.51,0.69 -3.99,-1.06 a 1.05,1.03 35.7 0 1 -0.18,-1.06 c 1.73,-4.45 3.46,-10.22 6.14,-14.04 a 1.11,1.09 12.2 0 1 0.71,-0.45 q 2.73,-0.47 3.8,1.95 0.28,0.61 0.81,0.21 2.22,-1.66 5.2,-0.86 a 0.68,0.68 0 0 1 0.35,1.08 l -0.87,1.06 a 0.46,0.46 0 0 0 0.37,0.75 c 2.75,-0.04 4.66,-2.48 8.09,-1.86 q 5.5,1.01 6.32,7.12 0.07,0.51 -0.24,0.92 -0.94,1.27 -0.58,2.98 a 0.6,0.61 76.2 0 1 -0.44,0.72 q -2.19,0.57 -3.97,-0.51 -0.46,-0.28 -0.99,-0.19 -3.1,0.5 -5.65,-1.02 z m 6.97,-3.26 -0.02,-1.94 A 0.73,0.73 0 0 0 253.19,383 l -0.85,0.01 a 1.56,4.1 89.3 0 0 -4.08,1.61 v 0.28 a 1.56,4.1 89.3 0 0 4.12,1.51 l 0.85,-0.01 a 0.73,0.73 0 0 0 0.72,-0.73 z"
       id="path82" />
    <path
       fill="#df1a23"
       d="m 296.32,377.18 7.1,0.73 a 0.77,0.76 89 0 1 0.68,0.66 l 0.32,2.19 -13.44,14.76 q -0.69,-0.23 -0.81,0.47 a 0.59,0.59 0 0 0 0.57,0.69 l 9.53,0.16 q 1.03,-0.09 1.68,0.47 0.47,0.41 0.07,0.87 -0.73,0.86 -0.24,2.1 l -13.23,-0.05 -5.85,-0.19 q -0.6,-0.02 -0.38,-0.58 c 0.63,-1.62 0.78,-2.99 2.06,-4.24 q 1.9,-1.86 3.65,-3.61 2.12,-1.34 3.45,-3.72 l 5.4,-5.92 A 0.58,0.58 0 0 0 296.46,381 h -9.21 a 0.56,0.57 9.6 0 1 -0.53,-0.76 l 0.92,-2.68 q 0.18,-0.54 0.75,-0.53 z"
       id="path83" />
    <path
       fill="#d7d8da"
       d="m 296.32,377.18 8,-0.13 q 0.55,-0.01 0.66,0.54 0.22,1.06 -0.56,3.17 l -0.32,-2.19 a 0.77,0.76 89 0 0 -0.68,-0.66 z"
       id="path84" />
    <path
       fill="#df1a23"
       d="m 353.0776,396.0471 a 8.62,9.77 33.5 0 1 -1.7957,-12.9048 8.62,9.77 33.5 0 1 12.5805,-3.3894 8.62,9.77 33.5 0 1 1.7957,12.9048 8.62,9.77 33.5 0 1 -12.5805,3.3894 z m 4.3074,-3.2609 a 3.61,5.14 13.1 0 0 4.6811,-4.188 3.61,5.14 13.1 0 0 -2.3511,-5.8244 3.61,5.14 13.1 0 0 -4.6811,4.188 3.61,5.14 13.1 0 0 2.3511,5.8244 z"
       id="path85" />
    <path
       fill="#df1a23"
       d="m 272.49,395.95 q -0.45,1.35 -0.89,2.39 -0.3,0.69 -0.74,0.8 -0.4,0.09 -0.77,-0.37 a 0.9,0.9 0 0 0 -0.78,-0.34 q -5.89,0.5 -11.63,-0.91 -1.13,-0.28 -0.34,-1.14 0.53,-0.58 0.8,-1.32 0.16,-0.46 0.5,-0.81 l 6.51,-6.67 q 0.31,-0.32 0.76,-0.32 0.28,0 0.57,-0.1 A 0.91,0.91 0 0 0 266,385.41 q -2.73,0.53 -4.98,-0.98 a 0.64,0.64 0 0 1 -0.06,-1.02 q 0.97,-0.82 0.79,-2.1 a 0.41,0.42 86.6 0 1 0.43,-0.48 l 10.21,0.38 a 0.4,0.38 67 0 1 0.23,0.1 q 0.8,0.76 2,0.73 a 1.3,1.31 23.3 0 1 0.9,2.27 q -3.26,2.95 -6.27,6.06 c -1.03,1.07 -2.69,1.67 -3.83,2.87 q -0.76,0.8 0.34,0.82 l 5.45,0.07 a 1.38,1.38 0 0 1 1.28,1.82 z"
       id="path86" />
    <path
       fill="#df1a23"
       d="m 328.73,387.08 q -1.82,3.05 -1.14,6.66 a 1,1.02 60.4 0 1 -0.25,0.88 q -1.16,1.24 -0.56,2.9 a 2.05,2.05 0 0 1 -2.5,2.66 q -1.6,-0.46 -3.07,0.15 a 0.52,0.52 0 0 1 -0.55,-0.86 q 0.11,-0.1 0.18,-0.2 0.1,-0.13 0.12,-0.29 l 2.05,-15.55 q 0.08,-0.59 0.66,-0.48 1.71,0.34 3.16,-0.47 a 0.67,0.66 61.4 0 1 0.91,0.27 l 0.26,0.48 q 0.28,0.53 0.82,0.27 c 2.78,-1.3 6.24,-2.94 8.15,0.08 a 0.54,0.54 0 0 0 0.88,0.05 c 2.38,-2.99 10.34,-4.18 9.33,1.53 a 0.89,0.91 27.6 0 0 0.23,0.76 q 1.21,1.27 0.02,2.51 -0.33,0.35 -0.23,0.82 0.41,2.04 -0.58,3.77 a 0.31,0.33 58.8 0 0 -0.05,0.17 l -0.19,5.54 a 0.64,0.64 0 0 1 -1.09,0.43 l -0.26,-0.25 q -0.36,-0.37 -0.82,-0.13 -1.57,0.81 -3.35,0.43 -0.47,-0.09 -0.35,-0.55 0.73,-2.83 1,-5.77 c 0.17,-1.74 0.92,-4.36 0.4,-6.84 a 0.72,0.72 0 0 0 -0.72,-0.58 c -3.18,0.03 -3.07,3.11 -4.09,5.17 q -0.22,0.45 -0.15,0.95 0.53,3.78 -1.16,7.14 -0.21,0.42 -0.6,0.68 -1.87,1.22 -3.66,-0.3 -0.45,-0.38 -0.51,-0.97 -0.17,-1.37 0.68,-2.46 a 1.54,1.5 63.2 0 0 0.31,-0.98 q -0.05,-1.47 0.01,-2.89 c 0.07,-2.01 1.68,-3.79 0.03,-6.11 a 0.54,0.54 0 0 0 -0.87,-0.02 q -0.59,0.76 -1.51,0.83 -0.62,0.04 -0.94,0.57 z"
       id="path87" />
    <path
       fill="#df1a23"
       d="m 314.31,387.65 c -1,-1.42 -3.4,-0.34 -4.28,0.66 q -0.31,0.35 -0.79,0.4 l -3.7,0.35 a 0.53,0.53 0 0 1 -0.56,-0.63 c 1.22,-5.91 12.48,-7.86 14.49,-1.7 0.96,2.93 -1.05,5.36 -0.54,7.89 a 0.84,0.84 0 0 1 -0.12,0.63 q -1.23,1.93 -1.04,4.31 a 1.49,1.49 0 0 1 -1.87,1.56 l -3.38,-0.9 q -0.52,-0.15 -1.01,0.1 c -4.77,2.41 -9.38,-1 -8.25,-6.44 q 0.09,-0.45 0.46,-0.73 c 1.3,-0.97 1.97,-2.1 3.57,-2.51 q 3.15,-0.81 6.45,-0.64 0.48,0.03 0.66,-0.42 0.47,-1.15 -0.09,-1.93 z m -1.71,5.14 -4.21,1.79 a 0.71,0.71 0 0 0 -0.38,0.93 l 0.07,0.16 a 2.36,2.89 67 0 0 3.58,1.04 l 0.2,-0.08 a 2.36,2.89 67 0 0 1.74,-3.3 l -0.06,-0.16 a 0.71,0.71 0 0 0 -0.94,-0.38 z"
       id="path88" />
    <path
       fill="#d7d8da"
       d="m 374.8,383.81 q 0.81,4.33 -0.5,8.59 -0.72,-4.74 0.5,-8.59 z"
       id="path89" />
    <path
       fill="#d7d8da"
       d="m 291.48,387.89 q -1.33,2.38 -3.45,3.72 1.13,-2.9 3.45,-3.72 z"
       id="path90" />
    <path
       fill="#d7d8da"
       d="m 246.98,388.93 -0.04,3.23 q -2.12,-3.23 0.04,-3.23 z"
       id="path91" />
    <path
       fill="#d7d8da"
       d="m 290.98,395.52 q -0.04,0.47 0.27,0.43 4.71,-0.5 9.02,0.89 l -9.53,-0.16 a 0.59,0.59 0 0 1 -0.57,-0.69 q 0.12,-0.7 0.81,-0.47 z"
       id="path92" />
    <path
       fill="#d7d8da"
       d="m 301.78,400.28 q -6.6,1.77 -13.23,-0.05 z"
       id="path93" />
  </g>
</svg>
